<svg data-logo="logo" xmlns="http://www.w3.org/2000/svg" viewBox="0 0 41 41">
        <g style="opacity: 1;" id="logogram" transform="translate(0, 0) rotate(0)"><path d="M20.1089 28.3C15.6906 28.3 12.1089 24.7183 12.1089 20.3C12.1089 15.8817 15.6906 12.3 20.1089 12.3C24.5272 12.3 28.1089 15.8817 28.1089 20.3C28.1089 24.7183 24.5272 28.3 20.1089 28.3Z" fill="#A853EE"></path><path d="M4.61061 23.0328C2.29227 23.4416 0.70318 25.6811 1.59311 27.8605C2.83557 30.9032 4.81774 33.6141 7.38749 35.7326C11.062 38.7615 15.6967 40.38 20.458 40.297C25.2194 40.2139 29.7948 38.4346 33.3615 35.2791C35.8557 33.0724 37.7421 30.2939 38.8777 27.2097C39.691 25.0005 38.0246 22.8179 35.6934 22.4903C33.3623 22.1627 31.2692 23.8595 30.1178 25.9128C29.4936 27.0257 28.6834 28.0355 27.7127 28.8943C25.6663 30.7048 23.0411 31.7256 20.3094 31.7733C17.5775 31.8209 14.9183 30.8924 12.81 29.1544C11.8099 28.33 10.965 27.3492 10.3023 26.2587C9.07994 24.2468 6.92894 22.624 4.61061 23.0328Z" fill="#B6FF2E"></path><path d="M39.9542 22.7993C40.0564 21.9805 40.1089 21.1464 40.1089 20.3C40.1089 9.2543 31.1546 0.299988 20.1089 0.299988C9.0632 0.299988 0.108887 9.2543 0.108887 20.3C0.108887 21.3863 0.195487 22.4523 0.362167 23.4916C1.28081 22.234 2.71457 21.3363 4.26324 21.0632C5.93882 20.7677 7.46166 21.1741 8.74925 21.9337C8.67318 21.4001 8.63382 20.8547 8.63382 20.3C8.63382 13.9625 13.7714 8.82493 20.1089 8.82493C26.4464 8.82493 31.584 13.9625 31.584 20.3C31.584 20.7179 31.5616 21.1305 31.5181 21.5368C32.7785 20.7324 34.2865 20.2728 35.9717 20.5097C37.5285 20.7285 38.9922 21.5752 39.9542 22.7993Z" fill="#0E4F8B"></path></g>
        <g style="opacity: 1;" id="logotype" transform="translate(41, 20.5)"></g>
        
      </svg>