
      <svg data-logo="logo" xmlns="http://www.w3.org/2000/svg" viewBox="0 0 46 41">
        <g id="logogram" transform="translate(0, 0) rotate(0) "><path d="M39.3285 33.0471C43.1874 29.6012 45.5538 24.9508 45.5538 19.8338C45.5538 9.21129 35.3562 0.600006 22.7769 0.600006C10.1976 0.600006 0 9.21129 0 19.8338C0 30.4564 10.1976 39.0677 22.7769 39.0677C26.3456 39.0677 29.7226 38.3746 32.7295 37.1391C36.2616 39.3193 40.5891 40.8865 45.3684 40.5559C42.8435 39.9141 40.6717 37.3142 39.3285 33.0471Z" fill="#B6EFA2"/><path d="M39.48 19.8338C39.48 27.661 32.0018 34.0061 22.7769 34.0061C13.5521 34.0061 6.07385 27.661 6.07385 19.8338C6.07385 12.0067 13.5521 5.66153 22.7769 5.66153C32.0018 5.66153 39.48 12.0067 39.48 19.8338Z" fill="#88E169"/><path d="M33.4061 19.8338C33.4061 24.8656 28.6473 28.9446 22.7769 28.9446C16.9066 28.9446 12.1477 24.8656 12.1477 19.8338C12.1477 14.8021 16.9066 10.7231 22.7769 10.7231C28.6473 10.7231 33.4061 14.8021 33.4061 19.8338Z" fill="#55AE36"/></g>
        <g id="logotype" transform="translate(46, 20.5)"></g>
        
      </svg>
    