<svg data-logo="logo" xmlns="http://www.w3.org/2000/svg" viewBox="0 0 41 58">
        <g style="opacity: 1;" id="logogram" transform="translate(0, 58) rotate(270)"><path fill-rule="evenodd" clip-rule="evenodd" d="M2.01157 13.1462C0.535655 16.8008 0.149487 20.8221 0.901958 24.7018C1.65434 28.5814 3.51157 32.1451 6.23865 34.9421C8.96573 37.7391 12.4403 39.6439 16.2229 40.4157C20.0057 41.1874 23.9264 40.7912 27.4896 39.2775C31.0527 37.7638 34.0982 35.2002 36.2409 31.9114C36.298 31.8237 36.3544 31.7355 36.4101 31.6469C36.4495 31.5845 36.4885 31.5217 36.5273 31.4587V40.7999H38.0272C41.884 40.7999 45.6541 39.6269 48.8608 37.4292C52.0676 35.2318 54.5669 32.1081 56.0428 28.4535C57.5188 24.7991 57.905 20.7778 57.1524 16.8981C56.4 13.0185 54.543 9.45484 51.8158 6.65784C49.0887 3.86074 45.6141 1.95597 41.8316 1.1843C38.0488 0.412536 34.128 0.808608 30.5648 2.32237C27.0017 3.83614 23.9562 6.39961 21.8136 9.68856C21.7161 9.83824 21.6206 9.98923 21.5272 10.1413V0.799969H20.0272C16.1704 0.799969 12.4003 1.97297 9.19361 4.17061C5.98688 6.36816 3.4875 9.49174 2.01157 13.1462ZM18.5273 20.8V3.94694C15.7932 4.20291 13.1562 5.15563 10.8603 6.72891C8.1469 8.58843 6.03211 11.2315 4.78324 14.3238C3.53437 17.4161 3.20762 20.8187 3.84428 24.1015C4.48094 27.3842 6.05245 30.3997 8.35993 32.7664C10.6675 35.1331 13.6076 36.7448 16.8083 37.3978C20.009 38.0508 23.3265 37.7157 26.3415 36.4348C29.2354 35.2054 31.7257 33.1577 33.5244 30.5342C32.1612 31.1979 30.6365 31.5692 29.0272 31.5692C23.2283 31.5692 18.5273 26.7475 18.5273 20.8ZM39.5272 37.6529V20.8C39.5272 14.8523 34.8261 10.0307 29.0272 10.0307C27.418 10.0307 25.8932 10.402 24.5301 11.0657C26.3287 8.44223 28.819 6.39444 31.7129 5.1651C34.7279 3.88421 38.0455 3.54909 41.2462 4.20207C44.4469 4.85504 47.3869 6.46684 49.6946 8.8335C52.0021 11.2003 53.5736 14.2157 54.2101 17.4984C54.8468 20.7812 54.52 24.1838 53.2712 27.2761C52.0224 30.3684 49.9076 33.0115 47.1941 34.871C44.8983 36.4442 42.2612 37.3969 39.5272 37.6529ZM28.8772 28.4908C24.8541 28.4098 21.6077 25.08 21.5287 20.9538H24.3662C26.6046 21.4771 28.3667 23.2842 28.8772 25.5801V28.4908ZM29.1771 28.4908C33.2002 28.4098 36.4468 25.08 36.5257 20.9538H33.6883C31.4496 21.4771 29.6874 23.2845 29.1771 25.5807V28.4908ZM36.5257 20.6461C36.4468 16.52 33.2002 13.1901 29.1771 13.1092V16.0192C29.6874 18.3152 31.4494 20.1227 33.6878 20.6461H36.5257ZM28.8772 13.1092C24.8542 13.1901 21.6077 16.52 21.5287 20.6461H24.3666C26.6049 20.1227 28.3669 18.3155 28.8772 16.0198V13.1092Z" fill="#5A44FD"></path></g>
        <g style="opacity: 1;" id="logotype" transform="translate(41, 29)"></g>
        
      </svg>