<svg data-logo="logo" xmlns="http://www.w3.org/2000/svg" viewBox="0 0 40 41">
        <g style="opacity: 1;" id="logogram" transform="translate(0, 0) rotate(0)"><path d="M20 0.0999146C31.0457 0.0999146 40 9.05422 40 20.0999V34.0999C40 37.4136 37.3137 40.0999 34 40.0999H21V31.3261C21 29.324 21.1224 27.2503 22.1725 25.5457C23.6625 23.1268 26.1515 21.397 29.0764 20.9192L29.4595 20.8567C29.7828 20.7458 30 20.4417 30 20.0999C30 19.7581 29.7828 19.454 29.4595 19.3432L29.0764 19.2806C24.836 18.5879 21.512 15.2639 20.8193 11.0235L20.7568 10.6405C20.6459 10.3171 20.3418 10.0999 20 10.0999C19.6582 10.0999 19.3541 10.3171 19.2432 10.6405L19.1807 11.0235C18.7029 13.9485 16.9731 16.4374 14.5542 17.9275C12.8496 18.9775 10.7759 19.0999 8.77382 19.0999H0.0245667C0.545597 8.5188 9.28963 0.0999146 20 0.0999146Z" fill="#F06225"></path><path d="M0 21.0999H8.77382C10.7759 21.0999 12.8495 21.2223 14.5541 22.2723C15.8852 23.0923 17.0076 24.2147 17.8276 25.5458C18.8776 27.2504 19 29.324 19 31.3261V40.0999H6C2.68629 40.0999 0 37.4136 0 34.0999V21.0999Z" fill="#94F024"></path><path d="M40 2.09991C40 3.20448 39.1046 4.09991 38 4.09991C36.8954 4.09991 36 3.20448 36 2.09991C36 0.995345 36.8954 0.0999146 38 0.0999146C39.1046 0.0999146 40 0.995345 40 2.09991Z" fill="#F06225"></path></g>
        <g style="opacity: 1;" id="logotype" transform="translate(40, 20.5)"></g>
        
      </svg>